<svg width="1440" height="135" viewBox="0 0 1440 135" fill="none" xmlns="http://www.w3.org/2000/svg">
<g filter="url(#filter0_i_150_555)">
<path d="M0 38.4191C0 38.4191 90.4506 72.8463 150.552 72.5367C209.389 72.2336 230.982 41.4184 289.599 38.4191C363.941 34.6152 397.412 76.9167 471.662 72.5367C528.418 69.1887 548.881 41.3248 605.708 38.4191C677.09 34.7691 708.272 75.3163 779.768 72.5367C839.56 70.2121 861.912 39.2765 921.816 38.4191C985.536 37.507 1010.65 73.4488 1074.37 72.5367C1134.27 71.6793 1156.5 37.9713 1216.42 38.4191C1274.53 38.8534 1296 77.6437 1353.46 72.5367C1396.29 68.7305 1457 33 1457 33" stroke="url(#paint0_linear_150_555)" stroke-width="10"/>
</g>
<g filter="url(#filter1_d_150_555)">
<mask id="mask0_150_555" style="mask-type:alpha" maskUnits="userSpaceOnUse" x="580" y="0" width="67" height="67">
<rect x="0.5" y="-0.5" width="66" height="66" transform="matrix(1 0 0 -1 580 66)" fill="#D9D9D9" stroke="url(#paint1_linear_150_555)"/>
</mask>
<g mask="url(#mask0_150_555)">
<path d="M601.45 12.6399L601.443 12.6604L601.422 12.657C597.333 12.0064 593.955 12.7154 591.287 14.7807C588.617 16.847 587.003 19.6677 586.446 23.2445L586.446 23.2445L586.445 23.2477C585.934 24.9649 585.888 26.7635 586.306 28.6441C586.723 30.5205 587.951 32.1324 589.994 33.4791L590.025 33.4998L589.994 33.5207C587.858 34.9606 586.595 36.6422 586.201 38.5649C585.806 40.4918 585.911 42.29 586.514 43.9603L586.514 43.9601L586.515 43.9645C587.119 47.4481 588.779 50.2107 591.496 52.254C594.211 54.2963 597.542 54.9702 601.491 54.2733L601.513 54.2695L601.52 54.2903C602.542 57.4966 604.191 59.8877 606.465 61.4659C608.742 63.0455 611.063 63.8344 613.43 63.8344C615.797 63.8344 618.119 63.0455 620.395 61.4659C622.67 59.8877 624.318 57.4966 625.341 54.2903L625.347 54.2697L625.369 54.2732C629.318 54.9237 632.661 54.2382 635.4 52.2189C638.139 50.199 639.788 47.4482 640.345 43.9648L640.345 43.9647L640.346 43.96C640.949 42.3367 641.042 40.5386 640.624 38.5651C640.207 36.5955 638.956 34.9139 636.866 33.5208L636.835 33.5001L636.866 33.4793C638.863 32.1328 640.068 30.4861 640.485 28.5396C640.903 26.589 640.833 24.8258 640.276 23.2489L640.276 23.2491L640.275 23.2449C639.672 19.8078 638.023 17.0216 635.329 14.8852C632.637 12.7501 629.295 12.0065 625.299 12.657L625.278 12.6604L625.271 12.6399C624.249 9.43366 622.588 7.06598 620.291 5.53434C617.991 4.00113 615.681 3.23542 613.36 3.23542C610.993 3.23542 608.672 4.00119 606.395 5.53428C604.121 7.06589 602.472 9.43359 601.45 12.6399ZM613.43 21.8198C616.647 21.8198 619.387 22.9507 621.648 25.212C623.91 27.4734 625.041 30.2366 625.041 33.5C625.041 36.7634 623.91 39.5266 621.648 41.788C619.387 44.0493 616.647 45.1802 613.43 45.1802C610.213 45.1802 607.52 44.0493 605.351 41.7876C603.183 39.5262 602.099 36.7631 602.099 33.5C602.099 30.2369 603.183 27.4738 605.351 25.2124C607.52 22.9507 610.213 21.8198 613.43 21.8198Z" fill="#DD67B8" stroke="url(#paint2_linear_150_555)" stroke-width="0.05"/>
</g>
</g>
<g filter="url(#filter2_d_150_555)">
<mask id="mask1_150_555" style="mask-type:alpha" maskUnits="userSpaceOnUse" x="898" y="0" width="67" height="67">
<rect x="0.5" y="-0.5" width="66" height="66" transform="matrix(1 0 0 -1 898 66)" fill="#D9D9D9" stroke="url(#paint3_linear_150_555)"/>
</mask>
<g mask="url(#mask1_150_555)">
<path d="M919.45 12.6399L919.443 12.6604L919.422 12.657C915.333 12.0064 911.955 12.7154 909.287 14.7807C906.617 16.847 905.003 19.6677 904.446 23.2445L904.446 23.2445L904.445 23.2477C903.934 24.9649 903.888 26.7635 904.306 28.6441C904.723 30.5205 905.951 32.1324 907.994 33.4791L908.025 33.4998L907.994 33.5207C905.858 34.9606 904.595 36.6422 904.201 38.5649C903.806 40.4918 903.911 42.29 904.514 43.9603L904.514 43.9601L904.515 43.9645C905.119 47.4481 906.779 50.2107 909.496 52.254C912.211 54.2963 915.542 54.9702 919.491 54.2733L919.513 54.2695L919.52 54.2903C920.542 57.4966 922.191 59.8877 924.465 61.4659C926.742 63.0455 929.063 63.8344 931.43 63.8344C933.797 63.8344 936.119 63.0455 938.395 61.4659C940.67 59.8877 942.318 57.4966 943.341 54.2903L943.347 54.2697L943.369 54.2732C947.318 54.9237 950.661 54.2382 953.4 52.2189C956.139 50.199 957.788 47.4482 958.345 43.9648L958.345 43.9647L958.346 43.96C958.949 42.3367 959.042 40.5386 958.624 38.5651C958.207 36.5955 956.956 34.9139 954.866 33.5208L954.835 33.5001L954.866 33.4793C956.863 32.1328 958.068 30.4861 958.485 28.5396C958.903 26.589 958.833 24.8258 958.276 23.2489L958.276 23.2491L958.275 23.2449C957.672 19.8078 956.023 17.0216 953.329 14.8852C950.637 12.7501 947.295 12.0065 943.299 12.657L943.278 12.6604L943.271 12.6399C942.249 9.43366 940.588 7.06598 938.291 5.53434C935.991 4.00113 933.681 3.23542 931.36 3.23542C928.993 3.23542 926.672 4.00119 924.395 5.53428C922.121 7.06589 920.472 9.43359 919.45 12.6399ZM931.43 21.8198C934.647 21.8198 937.387 22.9507 939.648 25.212C941.91 27.4734 943.041 30.2366 943.041 33.5C943.041 36.7634 941.91 39.5266 939.648 41.788C937.387 44.0493 934.647 45.1802 931.43 45.1802C928.213 45.1802 925.52 44.0493 923.351 41.7876C921.183 39.5262 920.099 36.7631 920.099 33.5C920.099 30.2369 921.183 27.4738 923.351 25.2124C925.52 22.9507 928.213 21.8198 931.43 21.8198Z" fill="#DD67B8" stroke="url(#paint4_linear_150_555)" stroke-width="0.05"/>
</g>
</g>
<g filter="url(#filter3_d_150_555)">
<mask id="mask2_150_555" style="mask-type:alpha" maskUnits="userSpaceOnUse" x="1180" y="0" width="67" height="67">
<rect x="0.5" y="-0.5" width="66" height="66" transform="matrix(1 0 0 -1 1180 66)" fill="#D9D9D9" stroke="url(#paint5_linear_150_555)"/>
</mask>
<g mask="url(#mask2_150_555)">
<path d="M1201.45 12.6399L1201.44 12.6604L1201.42 12.657C1197.33 12.0064 1193.96 12.7154 1191.29 14.7807C1188.62 16.847 1187 19.6677 1186.45 23.2445L1186.45 23.2445L1186.44 23.2477C1185.93 24.9649 1185.89 26.7635 1186.31 28.6441C1186.72 30.5205 1187.95 32.1324 1189.99 33.4791L1190.03 33.4998L1189.99 33.5207C1187.86 34.9606 1186.59 36.6422 1186.2 38.5649C1185.81 40.4918 1185.91 42.29 1186.51 43.9603L1186.51 43.9601L1186.52 43.9645C1187.12 47.4481 1188.78 50.2107 1191.5 52.254C1194.21 54.2963 1197.54 54.9702 1201.49 54.2733L1201.51 54.2695L1201.52 54.2903C1202.54 57.4966 1204.19 59.8877 1206.47 61.4659C1208.74 63.0455 1211.06 63.8344 1213.43 63.8344C1215.8 63.8344 1218.12 63.0455 1220.4 61.4659C1222.67 59.8877 1224.32 57.4966 1225.34 54.2903L1225.35 54.2697L1225.37 54.2732C1229.32 54.9237 1232.66 54.2382 1235.4 52.2189C1238.14 50.199 1239.79 47.4482 1240.35 43.9648L1240.34 43.9647L1240.35 43.96C1240.95 42.3367 1241.04 40.5386 1240.62 38.5651C1240.21 36.5955 1238.96 34.9139 1236.87 33.5208L1236.84 33.5001L1236.87 33.4793C1238.86 32.1328 1240.07 30.4861 1240.48 28.5396C1240.9 26.589 1240.83 24.8258 1240.28 23.2489L1240.28 23.2491L1240.28 23.2449C1239.67 19.8078 1238.02 17.0216 1235.33 14.8852C1232.64 12.7501 1229.29 12.0065 1225.3 12.657L1225.28 12.6604L1225.27 12.6399C1224.25 9.43366 1222.59 7.06598 1220.29 5.53434C1217.99 4.00113 1215.68 3.23542 1213.36 3.23542C1210.99 3.23542 1208.67 4.00119 1206.4 5.53428C1204.12 7.06589 1202.47 9.43359 1201.45 12.6399ZM1213.43 21.8198C1216.65 21.8198 1219.39 22.9507 1221.65 25.212C1223.91 27.4734 1225.04 30.2366 1225.04 33.5C1225.04 36.7634 1223.91 39.5266 1221.65 41.788C1219.39 44.0493 1216.65 45.1802 1213.43 45.1802C1210.21 45.1802 1207.52 44.0493 1205.35 41.7876C1203.18 39.5262 1202.1 36.7631 1202.1 33.5C1202.1 30.2369 1203.18 27.4738 1205.35 25.2124C1207.52 22.9507 1210.21 21.8198 1213.43 21.8198Z" fill="#DD67B8" stroke="url(#paint6_linear_150_555)" stroke-width="0.05"/>
</g>
</g>
<g filter="url(#filter4_d_150_555)">
<mask id="mask3_150_555" style="mask-type:alpha" maskUnits="userSpaceOnUse" x="263" y="6" width="67" height="67">
<rect x="0.5" y="-0.5" width="66" height="66" transform="matrix(1 0 0 -1 263 72)" fill="#D9D9D9" stroke="url(#paint7_linear_150_555)"/>
</mask>
<g mask="url(#mask3_150_555)">
<path d="M284.45 18.6399L284.443 18.6604L284.422 18.657C280.333 18.0064 276.955 18.7154 274.287 20.7807C271.617 22.847 270.003 25.6677 269.446 29.2445L269.446 29.2445L269.445 29.2477C268.934 30.9649 268.888 32.7635 269.306 34.6441C269.723 36.5205 270.951 38.1324 272.994 39.4791L273.025 39.4998L272.994 39.5207C270.858 40.9606 269.595 42.6422 269.201 44.5649C268.806 46.4918 268.911 48.29 269.514 49.9603L269.514 49.9601L269.515 49.9645C270.119 53.4481 271.779 56.2107 274.496 58.254C277.211 60.2963 280.542 60.9702 284.491 60.2733L284.513 60.2695L284.52 60.2903C285.542 63.4966 287.191 65.8877 289.465 67.4659C291.742 69.0455 294.063 69.8344 296.43 69.8344C298.797 69.8344 301.119 69.0455 303.395 67.4659C305.67 65.8877 307.318 63.4966 308.341 60.2903L308.347 60.2697L308.369 60.2732C312.318 60.9237 315.661 60.2382 318.4 58.2189C321.139 56.199 322.788 53.4482 323.345 49.9648L323.345 49.9647L323.346 49.96C323.949 48.3367 324.042 46.5386 323.624 44.5651C323.207 42.5955 321.956 40.9139 319.866 39.5208L319.835 39.5001L319.866 39.4793C321.863 38.1328 323.068 36.4861 323.485 34.5396C323.903 32.589 323.833 30.8258 323.276 29.2489L323.276 29.2491L323.275 29.2449C322.672 25.8078 321.023 23.0216 318.329 20.8852C315.637 18.7501 312.295 18.0065 308.299 18.657L308.278 18.6604L308.271 18.6399C307.249 15.4337 305.588 13.066 303.291 11.5343C300.991 10.0011 298.681 9.23542 296.36 9.23542C293.993 9.23542 291.672 10.0012 289.395 11.5343C287.121 13.0659 285.472 15.4336 284.45 18.6399ZM296.43 27.8198C299.647 27.8198 302.387 28.9507 304.648 31.212C306.91 33.4734 308.041 36.2366 308.041 39.5C308.041 42.7634 306.91 45.5266 304.648 47.788C302.387 50.0493 299.647 51.1802 296.43 51.1802C293.213 51.1802 290.52 50.0493 288.351 47.7876C286.183 45.5262 285.099 42.7631 285.099 39.5C285.099 36.2369 286.183 33.4738 288.351 31.2124C290.52 28.9507 293.213 27.8198 296.43 27.8198Z" fill="#DD67B8" stroke="url(#paint8_linear_150_555)" stroke-width="0.05"/>
</g>
</g>
<g filter="url(#filter5_d_150_555)">
<mask id="mask4_150_555" style="mask-type:alpha" maskUnits="userSpaceOnUse" x="107" y="41" width="67" height="67">
<rect x="0.5" y="-0.5" width="66" height="66" transform="matrix(1 0 0 -1 107 107)" fill="#D9D9D9" stroke="url(#paint9_linear_150_555)"/>
</mask>
<g mask="url(#mask4_150_555)">
<path d="M128.45 53.6399L128.443 53.6604L128.422 53.657C124.333 53.0064 120.955 53.7154 118.287 55.7807C115.617 57.847 114.003 60.6677 113.446 64.2445L113.446 64.2445L113.445 64.2477C112.934 65.9649 112.888 67.7635 113.306 69.6441C113.723 71.5205 114.951 73.1324 116.994 74.4791L117.025 74.4998L116.994 74.5207C114.858 75.9606 113.595 77.6422 113.201 79.5649C112.806 81.4918 112.911 83.29 113.514 84.9603L113.514 84.9601L113.515 84.9645C114.119 88.4481 115.779 91.2107 118.496 93.254C121.211 95.2963 124.542 95.9702 128.491 95.2733L128.513 95.2695L128.52 95.2903C129.542 98.4966 131.191 100.888 133.465 102.466C135.742 104.045 138.063 104.834 140.43 104.834C142.797 104.834 145.119 104.045 147.395 102.466C149.67 100.888 151.318 98.4966 152.341 95.2903L152.347 95.2697L152.369 95.2732C156.318 95.9237 159.661 95.2382 162.4 93.2189C165.139 91.199 166.788 88.4482 167.345 84.9648L167.345 84.9647L167.346 84.96C167.949 83.3367 168.042 81.5386 167.624 79.5651C167.207 77.5955 165.956 75.9139 163.866 74.5208L163.835 74.5001L163.866 74.4793C165.863 73.1328 167.068 71.4861 167.485 69.5396C167.903 67.589 167.833 65.8258 167.276 64.2489L167.276 64.2491L167.275 64.2449C166.672 60.8078 165.023 58.0216 162.329 55.8852C159.637 53.7501 156.295 53.0065 152.299 53.657L152.278 53.6604L152.271 53.6399C151.249 50.4337 149.588 48.066 147.291 46.5343C144.991 45.0011 142.681 44.2354 140.36 44.2354C137.993 44.2354 135.672 45.0012 133.395 46.5343C131.121 48.0659 129.472 50.4336 128.45 53.6399ZM140.43 62.8198C143.647 62.8198 146.387 63.9507 148.648 66.212C150.91 68.4734 152.041 71.2366 152.041 74.5C152.041 77.7634 150.91 80.5266 148.648 82.788C146.387 85.0493 143.647 86.1802 140.43 86.1802C137.213 86.1802 134.52 85.0493 132.351 82.7876C130.183 80.5262 129.099 77.7631 129.099 74.5C129.099 71.2369 130.183 68.4738 132.351 66.2124C134.52 63.9507 137.213 62.8198 140.43 62.8198Z" fill="#FFE08E" stroke="url(#paint10_linear_150_555)" stroke-width="0.05"/>
</g>
</g>
<circle cx="13" cy="13" r="13" transform="matrix(1 0 0 -1 127 89)" fill="#DD67B8"/>
<circle cx="13" cy="13" r="13" transform="matrix(1 0 0 -1 284 53)" fill="#FFE08E"/>
<g filter="url(#filter6_d_150_555)">
<mask id="mask5_150_555" style="mask-type:alpha" maskUnits="userSpaceOnUse" x="420" y="42" width="67" height="67">
<rect x="0.5" y="-0.5" width="66" height="66" transform="matrix(1 0 0 -1 420 108)" fill="#D9D9D9" stroke="url(#paint11_linear_150_555)"/>
</mask>
<g mask="url(#mask5_150_555)">
<path d="M441.45 54.6399L441.443 54.6604L441.422 54.657C437.333 54.0064 433.955 54.7154 431.287 56.7807C428.617 58.847 427.003 61.6677 426.446 65.2445L426.446 65.2445L426.445 65.2477C425.934 66.9649 425.888 68.7635 426.306 70.6441C426.723 72.5205 427.951 74.1324 429.994 75.4791L430.025 75.4998L429.994 75.5207C427.858 76.9606 426.595 78.6422 426.201 80.5649C425.806 82.4918 425.911 84.29 426.514 85.9603L426.514 85.9601L426.515 85.9645C427.119 89.4481 428.779 92.2107 431.496 94.254C434.211 96.2963 437.542 96.9702 441.491 96.2733L441.513 96.2695L441.52 96.2903C442.542 99.4966 444.191 101.888 446.465 103.466C448.742 105.045 451.063 105.834 453.43 105.834C455.797 105.834 458.119 105.045 460.395 103.466C462.67 101.888 464.318 99.4966 465.341 96.2903L465.347 96.2697L465.369 96.2732C469.318 96.9237 472.661 96.2382 475.4 94.2189C478.139 92.199 479.788 89.4482 480.345 85.9648L480.345 85.9647L480.346 85.96C480.949 84.3367 481.042 82.5386 480.624 80.5651C480.207 78.5955 478.956 76.9139 476.866 75.5208L476.835 75.5001L476.866 75.4793C478.863 74.1328 480.068 72.4861 480.485 70.5396C480.903 68.589 480.833 66.8258 480.276 65.2489L480.276 65.2491L480.275 65.2449C479.672 61.8078 478.023 59.0216 475.329 56.8852C472.637 54.7501 469.295 54.0065 465.299 54.657L465.278 54.6604L465.271 54.6399C464.249 51.4337 462.588 49.066 460.291 47.5343C457.991 46.0011 455.681 45.2354 453.36 45.2354C450.993 45.2354 448.672 46.0012 446.395 47.5343C444.121 49.0659 442.472 51.4336 441.45 54.6399ZM453.43 63.8198C456.647 63.8198 459.387 64.9507 461.648 67.212C463.91 69.4734 465.041 72.2366 465.041 75.5C465.041 78.7634 463.91 81.5266 461.648 83.788C459.387 86.0493 456.647 87.1802 453.43 87.1802C450.213 87.1802 447.52 86.0493 445.351 83.7876C443.183 81.5262 442.099 78.7631 442.099 75.5C442.099 72.2369 443.183 69.4738 445.351 67.2124C447.52 64.9507 450.213 63.8198 453.43 63.8198Z" fill="#FFE08E" stroke="url(#paint12_linear_150_555)" stroke-width="0.05"/>
</g>
</g>
<circle cx="13" cy="13" r="13" transform="matrix(1 0 0 -1 441 88)" fill="#DD67B8"/>
<circle cx="13" cy="13" r="13" transform="matrix(1 0 0 -1 601 46)" fill="#FFE08E"/>
<g filter="url(#filter7_d_150_555)">
<mask id="mask6_150_555" style="mask-type:alpha" maskUnits="userSpaceOnUse" x="739" y="44" width="67" height="67">
<rect x="0.5" y="-0.5" width="66" height="66" transform="matrix(1 0 0 -1 739 110)" fill="#D9D9D9" stroke="url(#paint13_linear_150_555)"/>
</mask>
<g mask="url(#mask6_150_555)">
<path d="M760.45 56.6399L760.443 56.6604L760.422 56.657C756.333 56.0064 752.955 56.7154 750.287 58.7807C747.617 60.847 746.003 63.6677 745.446 67.2445L745.446 67.2445L745.445 67.2477C744.934 68.9649 744.888 70.7635 745.306 72.6441C745.723 74.5205 746.951 76.1324 748.994 77.4791L749.025 77.4998L748.994 77.5207C746.858 78.9606 745.595 80.6422 745.201 82.5649C744.806 84.4918 744.911 86.29 745.514 87.9603L745.514 87.9601L745.515 87.9645C746.119 91.4481 747.779 94.2107 750.496 96.254C753.211 98.2963 756.542 98.9702 760.491 98.2733L760.513 98.2695L760.52 98.2903C761.542 101.497 763.191 103.888 765.465 105.466C767.742 107.045 770.063 107.834 772.43 107.834C774.797 107.834 777.119 107.045 779.395 105.466C781.67 103.888 783.318 101.497 784.341 98.2903L784.347 98.2697L784.369 98.2732C788.318 98.9237 791.661 98.2382 794.4 96.2189C797.139 94.199 798.788 91.4482 799.345 87.9648L799.345 87.9647L799.346 87.96C799.949 86.3367 800.042 84.5386 799.624 82.5651C799.207 80.5955 797.956 78.9139 795.866 77.5208L795.835 77.5001L795.866 77.4793C797.863 76.1328 799.068 74.4861 799.485 72.5396C799.903 70.589 799.833 68.8258 799.276 67.2489L799.276 67.2491L799.275 67.2449C798.672 63.8078 797.023 61.0216 794.329 58.8852C791.637 56.7501 788.295 56.0065 784.299 56.657L784.278 56.6604L784.271 56.6399C783.249 53.4337 781.588 51.066 779.291 49.5343C776.991 48.0011 774.681 47.2354 772.36 47.2354C769.993 47.2354 767.672 48.0012 765.395 49.5343C763.121 51.0659 761.472 53.4336 760.45 56.6399ZM772.43 65.8198C775.647 65.8198 778.387 66.9507 780.648 69.212C782.91 71.4734 784.041 74.2366 784.041 77.5C784.041 80.7634 782.91 83.5266 780.648 85.788C778.387 88.0493 775.647 89.1802 772.43 89.1802C769.213 89.1802 766.52 88.0493 764.351 85.7876C762.183 83.5262 761.099 80.7631 761.099 77.5C761.099 74.2369 762.183 71.4738 764.351 69.2124C766.52 66.9507 769.213 65.8198 772.43 65.8198Z" fill="#FFE08E" stroke="url(#paint14_linear_150_555)" stroke-width="0.05"/>
</g>
</g>
<circle cx="13" cy="13" r="13" transform="matrix(1 0 0 -1 760 90)" fill="#DD67B8"/>
<circle cx="13" cy="13" r="13" transform="matrix(1 0 0 -1 919 46)" fill="#FFE08E"/>
<g filter="url(#filter8_d_150_555)">
<mask id="mask7_150_555" style="mask-type:alpha" maskUnits="userSpaceOnUse" x="1042" y="45" width="67" height="67">
<rect x="0.5" y="-0.5" width="66" height="66" transform="matrix(1 0 0 -1 1042 111)" fill="#D9D9D9" stroke="url(#paint15_linear_150_555)"/>
</mask>
<g mask="url(#mask7_150_555)">
<path d="M1063.45 57.6399L1063.44 57.6604L1063.42 57.657C1059.33 57.0064 1055.96 57.7154 1053.29 59.7807C1050.62 61.847 1049 64.6677 1048.45 68.2445L1048.45 68.2445L1048.44 68.2477C1047.93 69.9649 1047.89 71.7635 1048.31 73.6441C1048.72 75.5205 1049.95 77.1324 1051.99 78.4791L1052.03 78.4998L1051.99 78.5207C1049.86 79.9606 1048.59 81.6422 1048.2 83.5649C1047.81 85.4918 1047.91 87.29 1048.51 88.9603L1048.51 88.9601L1048.52 88.9645C1049.12 92.4481 1050.78 95.2107 1053.5 97.254C1056.21 99.2963 1059.54 99.9702 1063.49 99.2733L1063.51 99.2695L1063.52 99.2903C1064.54 102.497 1066.19 104.888 1068.47 106.466C1070.74 108.045 1073.06 108.834 1075.43 108.834C1077.8 108.834 1080.12 108.045 1082.4 106.466C1084.67 104.888 1086.32 102.497 1087.34 99.2903L1087.35 99.2697L1087.37 99.2732C1091.32 99.9237 1094.66 99.2382 1097.4 97.2189C1100.14 95.199 1101.79 92.4482 1102.35 88.9648L1102.34 88.9647L1102.35 88.96C1102.95 87.3367 1103.04 85.5386 1102.62 83.5651C1102.21 81.5955 1100.96 79.9139 1098.87 78.5208L1098.84 78.5001L1098.87 78.4793C1100.86 77.1328 1102.07 75.4861 1102.48 73.5396C1102.9 71.589 1102.83 69.8258 1102.28 68.2489L1102.28 68.2491L1102.28 68.2449C1101.67 64.8078 1100.02 62.0216 1097.33 59.8852C1094.64 57.7501 1091.29 57.0065 1087.3 57.657L1087.28 57.6604L1087.27 57.6399C1086.25 54.4337 1084.59 52.066 1082.29 50.5343C1079.99 49.0011 1077.68 48.2354 1075.36 48.2354C1072.99 48.2354 1070.67 49.0012 1068.4 50.5343C1066.12 52.0659 1064.47 54.4336 1063.45 57.6399ZM1075.43 66.8198C1078.65 66.8198 1081.39 67.9507 1083.65 70.212C1085.91 72.4734 1087.04 75.2366 1087.04 78.5C1087.04 81.7634 1085.91 84.5266 1083.65 86.788C1081.39 89.0493 1078.65 90.1802 1075.43 90.1802C1072.21 90.1802 1069.52 89.0493 1067.35 86.7876C1065.18 84.5262 1064.1 81.7631 1064.1 78.5C1064.1 75.2369 1065.18 72.4738 1067.35 70.2124C1069.52 67.9507 1072.21 66.8198 1075.43 66.8198Z" fill="#FFE08E" stroke="url(#paint16_linear_150_555)" stroke-width="0.05"/>
</g>
</g>
<circle cx="13" cy="13" r="13" transform="matrix(1 0 0 -1 1063 91)" fill="#DD67B8"/>
<circle cx="13" cy="13" r="13" transform="matrix(1 0 0 -1 1201 46)" fill="#FFE08E"/>
<g filter="url(#filter9_d_150_555)">
<mask id="mask8_150_555" style="mask-type:alpha" maskUnits="userSpaceOnUse" x="1316" y="46" width="67" height="67">
<rect x="0.5" y="-0.5" width="66" height="66" transform="matrix(1 0 0 -1 1316 112)" fill="#D9D9D9" stroke="url(#paint17_linear_150_555)"/>
</mask>
<g mask="url(#mask8_150_555)">
<path d="M1337.45 58.6399L1337.44 58.6604L1337.42 58.657C1333.33 58.0064 1329.96 58.7154 1327.29 60.7807C1324.62 62.847 1323 65.6677 1322.45 69.2445L1322.45 69.2445L1322.44 69.2477C1321.93 70.9649 1321.89 72.7635 1322.31 74.6441C1322.72 76.5205 1323.95 78.1324 1325.99 79.4791L1326.03 79.4998L1325.99 79.5207C1323.86 80.9606 1322.59 82.6422 1322.2 84.5649C1321.81 86.4918 1321.91 88.29 1322.51 89.9603L1322.51 89.9601L1322.52 89.9645C1323.12 93.4481 1324.78 96.2107 1327.5 98.254C1330.21 100.296 1333.54 100.97 1337.49 100.273L1337.51 100.269L1337.52 100.29C1338.54 103.497 1340.19 105.888 1342.47 107.466C1344.74 109.045 1347.06 109.834 1349.43 109.834C1351.8 109.834 1354.12 109.045 1356.4 107.466C1358.67 105.888 1360.32 103.497 1361.34 100.29L1361.35 100.27L1361.37 100.273C1365.32 100.924 1368.66 100.238 1371.4 98.2189C1374.14 96.199 1375.79 93.4482 1376.35 89.9648L1376.34 89.9647L1376.35 89.96C1376.95 88.3367 1377.04 86.5386 1376.62 84.5651C1376.21 82.5955 1374.96 80.9139 1372.87 79.5208L1372.84 79.5001L1372.87 79.4793C1374.86 78.1328 1376.07 76.4861 1376.48 74.5396C1376.9 72.589 1376.83 70.8258 1376.28 69.2489L1376.28 69.2491L1376.28 69.2449C1375.67 65.8078 1374.02 63.0216 1371.33 60.8852C1368.64 58.7501 1365.29 58.0065 1361.3 58.657L1361.28 58.6604L1361.27 58.6399C1360.25 55.4337 1358.59 53.066 1356.29 51.5343C1353.99 50.0011 1351.68 49.2354 1349.36 49.2354C1346.99 49.2354 1344.67 50.0012 1342.4 51.5343C1340.12 53.0659 1338.47 55.4336 1337.45 58.6399ZM1349.43 67.8198C1352.65 67.8198 1355.39 68.9507 1357.65 71.212C1359.91 73.4734 1361.04 76.2366 1361.04 79.5C1361.04 82.7634 1359.91 85.5266 1357.65 87.788C1355.39 90.0493 1352.65 91.1802 1349.43 91.1802C1346.21 91.1802 1343.52 90.0493 1341.35 87.7876C1339.18 85.5262 1338.1 82.7631 1338.1 79.5C1338.1 76.2369 1339.18 73.4738 1341.35 71.2124C1343.52 68.9507 1346.21 67.8198 1349.43 67.8198Z" fill="#FFE08E" stroke="url(#paint18_linear_150_555)" stroke-width="0.05"/>
</g>
</g>
<circle cx="13" cy="13" r="13" transform="matrix(1 0 0 -1 1337 92)" fill="#DD67B8"/>
<defs>
<filter id="filter0_i_150_555" x="-1.77663" y="28.6907" width="1461.31" height="51.3087" filterUnits="userSpaceOnUse" color-interpolation-filters="sRGB">
<feFlood flood-opacity="0" result="BackgroundImageFix"/>
<feBlend mode="normal" in="SourceGraphic" in2="BackgroundImageFix" result="shape"/>
<feColorMatrix in="SourceAlpha" type="matrix" values="0 0 0 0 0 0 0 0 0 0 0 0 0 0 0 0 0 0 127 0" result="hardAlpha"/>
<feOffset dy="2"/>
<feGaussianBlur stdDeviation="2"/>
<feComposite in2="hardAlpha" operator="arithmetic" k2="-1" k3="1"/>
<feColorMatrix type="matrix" values="0 0 0 0 0.284679 0 0 0 0 0.210741 0 0 0 0 0.210741 0 0 0 1 0"/>
<feBlend mode="normal" in2="shape" result="effect1_innerShadow_150_555"/>
</filter>
<filter id="filter1_d_150_555" x="581.942" y="3.21042" width="62.9639" height="68.649" filterUnits="userSpaceOnUse" color-interpolation-filters="sRGB">
<feFlood flood-opacity="0" result="BackgroundImageFix"/>
<feColorMatrix in="SourceAlpha" type="matrix" values="0 0 0 0 0 0 0 0 0 0 0 0 0 0 0 0 0 0 127 0" result="hardAlpha"/>
<feOffset dy="4"/>
<feGaussianBlur stdDeviation="2"/>
<feComposite in2="hardAlpha" operator="out"/>
<feColorMatrix type="matrix" values="0 0 0 0 0.648568 0 0 0 0 0.154035 0 0 0 0 0.603812 0 0 0 1 0"/>
<feBlend mode="normal" in2="BackgroundImageFix" result="effect1_dropShadow_150_555"/>
<feBlend mode="normal" in="SourceGraphic" in2="effect1_dropShadow_150_555" result="shape"/>
</filter>
<filter id="filter2_d_150_555" x="899.942" y="3.21042" width="62.9639" height="68.649" filterUnits="userSpaceOnUse" color-interpolation-filters="sRGB">
<feFlood flood-opacity="0" result="BackgroundImageFix"/>
<feColorMatrix in="SourceAlpha" type="matrix" values="0 0 0 0 0 0 0 0 0 0 0 0 0 0 0 0 0 0 127 0" result="hardAlpha"/>
<feOffset dy="4"/>
<feGaussianBlur stdDeviation="2"/>
<feComposite in2="hardAlpha" operator="out"/>
<feColorMatrix type="matrix" values="0 0 0 0 0.648568 0 0 0 0 0.154035 0 0 0 0 0.603812 0 0 0 1 0"/>
<feBlend mode="normal" in2="BackgroundImageFix" result="effect1_dropShadow_150_555"/>
<feBlend mode="normal" in="SourceGraphic" in2="effect1_dropShadow_150_555" result="shape"/>
</filter>
<filter id="filter3_d_150_555" x="1181.94" y="3.21042" width="62.9639" height="68.649" filterUnits="userSpaceOnUse" color-interpolation-filters="sRGB">
<feFlood flood-opacity="0" result="BackgroundImageFix"/>
<feColorMatrix in="SourceAlpha" type="matrix" values="0 0 0 0 0 0 0 0 0 0 0 0 0 0 0 0 0 0 127 0" result="hardAlpha"/>
<feOffset dy="4"/>
<feGaussianBlur stdDeviation="2"/>
<feComposite in2="hardAlpha" operator="out"/>
<feColorMatrix type="matrix" values="0 0 0 0 0.648568 0 0 0 0 0.154035 0 0 0 0 0.603812 0 0 0 1 0"/>
<feBlend mode="normal" in2="BackgroundImageFix" result="effect1_dropShadow_150_555"/>
<feBlend mode="normal" in="SourceGraphic" in2="effect1_dropShadow_150_555" result="shape"/>
</filter>
<filter id="filter4_d_150_555" x="264.942" y="9.21042" width="62.9639" height="68.649" filterUnits="userSpaceOnUse" color-interpolation-filters="sRGB">
<feFlood flood-opacity="0" result="BackgroundImageFix"/>
<feColorMatrix in="SourceAlpha" type="matrix" values="0 0 0 0 0 0 0 0 0 0 0 0 0 0 0 0 0 0 127 0" result="hardAlpha"/>
<feOffset dy="4"/>
<feGaussianBlur stdDeviation="2"/>
<feComposite in2="hardAlpha" operator="out"/>
<feColorMatrix type="matrix" values="0 0 0 0 0.648568 0 0 0 0 0.154035 0 0 0 0 0.603812 0 0 0 1 0"/>
<feBlend mode="normal" in2="BackgroundImageFix" result="effect1_dropShadow_150_555"/>
<feBlend mode="normal" in="SourceGraphic" in2="effect1_dropShadow_150_555" result="shape"/>
</filter>
<filter id="filter5_d_150_555" x="108.942" y="44.2104" width="62.9639" height="68.649" filterUnits="userSpaceOnUse" color-interpolation-filters="sRGB">
<feFlood flood-opacity="0" result="BackgroundImageFix"/>
<feColorMatrix in="SourceAlpha" type="matrix" values="0 0 0 0 0 0 0 0 0 0 0 0 0 0 0 0 0 0 127 0" result="hardAlpha"/>
<feOffset dy="4"/>
<feGaussianBlur stdDeviation="2"/>
<feComposite in2="hardAlpha" operator="out"/>
<feColorMatrix type="matrix" values="0 0 0 0 0.648568 0 0 0 0 0.154035 0 0 0 0 0.603812 0 0 0 1 0"/>
<feBlend mode="normal" in2="BackgroundImageFix" result="effect1_dropShadow_150_555"/>
<feBlend mode="normal" in="SourceGraphic" in2="effect1_dropShadow_150_555" result="shape"/>
</filter>
<filter id="filter6_d_150_555" x="421.942" y="45.2104" width="62.9639" height="68.649" filterUnits="userSpaceOnUse" color-interpolation-filters="sRGB">
<feFlood flood-opacity="0" result="BackgroundImageFix"/>
<feColorMatrix in="SourceAlpha" type="matrix" values="0 0 0 0 0 0 0 0 0 0 0 0 0 0 0 0 0 0 127 0" result="hardAlpha"/>
<feOffset dy="4"/>
<feGaussianBlur stdDeviation="2"/>
<feComposite in2="hardAlpha" operator="out"/>
<feColorMatrix type="matrix" values="0 0 0 0 0.648568 0 0 0 0 0.154035 0 0 0 0 0.603812 0 0 0 1 0"/>
<feBlend mode="normal" in2="BackgroundImageFix" result="effect1_dropShadow_150_555"/>
<feBlend mode="normal" in="SourceGraphic" in2="effect1_dropShadow_150_555" result="shape"/>
</filter>
<filter id="filter7_d_150_555" x="740.942" y="47.2104" width="62.9639" height="68.649" filterUnits="userSpaceOnUse" color-interpolation-filters="sRGB">
<feFlood flood-opacity="0" result="BackgroundImageFix"/>
<feColorMatrix in="SourceAlpha" type="matrix" values="0 0 0 0 0 0 0 0 0 0 0 0 0 0 0 0 0 0 127 0" result="hardAlpha"/>
<feOffset dy="4"/>
<feGaussianBlur stdDeviation="2"/>
<feComposite in2="hardAlpha" operator="out"/>
<feColorMatrix type="matrix" values="0 0 0 0 0.648568 0 0 0 0 0.154035 0 0 0 0 0.603812 0 0 0 1 0"/>
<feBlend mode="normal" in2="BackgroundImageFix" result="effect1_dropShadow_150_555"/>
<feBlend mode="normal" in="SourceGraphic" in2="effect1_dropShadow_150_555" result="shape"/>
</filter>
<filter id="filter8_d_150_555" x="1043.94" y="48.2104" width="62.9639" height="68.649" filterUnits="userSpaceOnUse" color-interpolation-filters="sRGB">
<feFlood flood-opacity="0" result="BackgroundImageFix"/>
<feColorMatrix in="SourceAlpha" type="matrix" values="0 0 0 0 0 0 0 0 0 0 0 0 0 0 0 0 0 0 127 0" result="hardAlpha"/>
<feOffset dy="4"/>
<feGaussianBlur stdDeviation="2"/>
<feComposite in2="hardAlpha" operator="out"/>
<feColorMatrix type="matrix" values="0 0 0 0 0.648568 0 0 0 0 0.154035 0 0 0 0 0.603812 0 0 0 1 0"/>
<feBlend mode="normal" in2="BackgroundImageFix" result="effect1_dropShadow_150_555"/>
<feBlend mode="normal" in="SourceGraphic" in2="effect1_dropShadow_150_555" result="shape"/>
</filter>
<filter id="filter9_d_150_555" x="1317.94" y="49.2104" width="62.9639" height="68.649" filterUnits="userSpaceOnUse" color-interpolation-filters="sRGB">
<feFlood flood-opacity="0" result="BackgroundImageFix"/>
<feColorMatrix in="SourceAlpha" type="matrix" values="0 0 0 0 0 0 0 0 0 0 0 0 0 0 0 0 0 0 127 0" result="hardAlpha"/>
<feOffset dy="4"/>
<feGaussianBlur stdDeviation="2"/>
<feComposite in2="hardAlpha" operator="out"/>
<feColorMatrix type="matrix" values="0 0 0 0 0.648568 0 0 0 0 0.154035 0 0 0 0 0.603812 0 0 0 1 0"/>
<feBlend mode="normal" in2="BackgroundImageFix" result="effect1_dropShadow_150_555"/>
<feBlend mode="normal" in="SourceGraphic" in2="effect1_dropShadow_150_555" result="shape"/>
</filter>
<linearGradient id="paint0_linear_150_555" x1="1457" y1="53" x2="0" y2="53" gradientUnits="userSpaceOnUse">
<stop offset="0.0116666" stop-color="#593232"/>
<stop offset="0.316667" stop-color="#593232"/>
<stop offset="0.626667" stop-color="#B27575"/>
<stop offset="0.991667" stop-color="#593232"/>
</linearGradient>
<linearGradient id="paint1_linear_150_555" x1="67" y1="33.5" x2="0" y2="33.5" gradientUnits="userSpaceOnUse">
<stop offset="0.0116666" stop-color="#593232"/>
<stop offset="0.316667" stop-color="#593232"/>
<stop offset="0.626667" stop-color="#B27575"/>
<stop offset="0.991667" stop-color="#593232"/>
</linearGradient>
<linearGradient id="paint2_linear_150_555" x1="640.906" y1="33.5349" x2="585.942" y2="33.5349" gradientUnits="userSpaceOnUse">
<stop offset="0.0116666" stop-color="#593232"/>
<stop offset="0.316667" stop-color="#593232"/>
<stop offset="0.626667" stop-color="#B27575"/>
<stop offset="0.991667" stop-color="#593232"/>
</linearGradient>
<linearGradient id="paint3_linear_150_555" x1="67" y1="33.5" x2="0" y2="33.5" gradientUnits="userSpaceOnUse">
<stop offset="0.0116666" stop-color="#593232"/>
<stop offset="0.316667" stop-color="#593232"/>
<stop offset="0.626667" stop-color="#B27575"/>
<stop offset="0.991667" stop-color="#593232"/>
</linearGradient>
<linearGradient id="paint4_linear_150_555" x1="958.906" y1="33.5349" x2="903.942" y2="33.5349" gradientUnits="userSpaceOnUse">
<stop offset="0.0116666" stop-color="#593232"/>
<stop offset="0.316667" stop-color="#593232"/>
<stop offset="0.626667" stop-color="#B27575"/>
<stop offset="0.991667" stop-color="#593232"/>
</linearGradient>
<linearGradient id="paint5_linear_150_555" x1="67" y1="33.5" x2="0" y2="33.5" gradientUnits="userSpaceOnUse">
<stop offset="0.0116666" stop-color="#593232"/>
<stop offset="0.316667" stop-color="#593232"/>
<stop offset="0.626667" stop-color="#B27575"/>
<stop offset="0.991667" stop-color="#593232"/>
</linearGradient>
<linearGradient id="paint6_linear_150_555" x1="1240.91" y1="33.5349" x2="1185.94" y2="33.5349" gradientUnits="userSpaceOnUse">
<stop offset="0.0116666" stop-color="#593232"/>
<stop offset="0.316667" stop-color="#593232"/>
<stop offset="0.626667" stop-color="#B27575"/>
<stop offset="0.991667" stop-color="#593232"/>
</linearGradient>
<linearGradient id="paint7_linear_150_555" x1="67" y1="33.5" x2="0" y2="33.5" gradientUnits="userSpaceOnUse">
<stop offset="0.0116666" stop-color="#593232"/>
<stop offset="0.316667" stop-color="#593232"/>
<stop offset="0.626667" stop-color="#B27575"/>
<stop offset="0.991667" stop-color="#593232"/>
</linearGradient>
<linearGradient id="paint8_linear_150_555" x1="323.906" y1="39.5349" x2="268.942" y2="39.5349" gradientUnits="userSpaceOnUse">
<stop offset="0.0116666" stop-color="#593232"/>
<stop offset="0.316667" stop-color="#593232"/>
<stop offset="0.626667" stop-color="#B27575"/>
<stop offset="0.991667" stop-color="#593232"/>
</linearGradient>
<linearGradient id="paint9_linear_150_555" x1="67" y1="33.5" x2="0" y2="33.5" gradientUnits="userSpaceOnUse">
<stop offset="0.0116666" stop-color="#593232"/>
<stop offset="0.316667" stop-color="#593232"/>
<stop offset="0.626667" stop-color="#B27575"/>
<stop offset="0.991667" stop-color="#593232"/>
</linearGradient>
<linearGradient id="paint10_linear_150_555" x1="167.906" y1="74.5349" x2="112.942" y2="74.5349" gradientUnits="userSpaceOnUse">
<stop offset="0.0116666" stop-color="#593232"/>
<stop offset="0.316667" stop-color="#593232"/>
<stop offset="0.626667" stop-color="#B27575"/>
<stop offset="0.991667" stop-color="#593232"/>
</linearGradient>
<linearGradient id="paint11_linear_150_555" x1="67" y1="33.5" x2="0" y2="33.5" gradientUnits="userSpaceOnUse">
<stop offset="0.0116666" stop-color="#593232"/>
<stop offset="0.316667" stop-color="#593232"/>
<stop offset="0.626667" stop-color="#B27575"/>
<stop offset="0.991667" stop-color="#593232"/>
</linearGradient>
<linearGradient id="paint12_linear_150_555" x1="480.906" y1="75.5349" x2="425.942" y2="75.5349" gradientUnits="userSpaceOnUse">
<stop offset="0.0116666" stop-color="#593232"/>
<stop offset="0.316667" stop-color="#593232"/>
<stop offset="0.626667" stop-color="#B27575"/>
<stop offset="0.991667" stop-color="#593232"/>
</linearGradient>
<linearGradient id="paint13_linear_150_555" x1="67" y1="33.5" x2="0" y2="33.5" gradientUnits="userSpaceOnUse">
<stop offset="0.0116666" stop-color="#593232"/>
<stop offset="0.316667" stop-color="#593232"/>
<stop offset="0.626667" stop-color="#B27575"/>
<stop offset="0.991667" stop-color="#593232"/>
</linearGradient>
<linearGradient id="paint14_linear_150_555" x1="799.906" y1="77.5349" x2="744.942" y2="77.5349" gradientUnits="userSpaceOnUse">
<stop offset="0.0116666" stop-color="#593232"/>
<stop offset="0.316667" stop-color="#593232"/>
<stop offset="0.626667" stop-color="#B27575"/>
<stop offset="0.991667" stop-color="#593232"/>
</linearGradient>
<linearGradient id="paint15_linear_150_555" x1="67" y1="33.5" x2="0" y2="33.5" gradientUnits="userSpaceOnUse">
<stop offset="0.0116666" stop-color="#593232"/>
<stop offset="0.316667" stop-color="#593232"/>
<stop offset="0.626667" stop-color="#B27575"/>
<stop offset="0.991667" stop-color="#593232"/>
</linearGradient>
<linearGradient id="paint16_linear_150_555" x1="1102.91" y1="78.5349" x2="1047.94" y2="78.5349" gradientUnits="userSpaceOnUse">
<stop offset="0.0116666" stop-color="#593232"/>
<stop offset="0.316667" stop-color="#593232"/>
<stop offset="0.626667" stop-color="#B27575"/>
<stop offset="0.991667" stop-color="#593232"/>
</linearGradient>
<linearGradient id="paint17_linear_150_555" x1="67" y1="33.5" x2="0" y2="33.5" gradientUnits="userSpaceOnUse">
<stop offset="0.0116666" stop-color="#593232"/>
<stop offset="0.316667" stop-color="#593232"/>
<stop offset="0.626667" stop-color="#B27575"/>
<stop offset="0.991667" stop-color="#593232"/>
</linearGradient>
<linearGradient id="paint18_linear_150_555" x1="1376.91" y1="79.5349" x2="1321.94" y2="79.5349" gradientUnits="userSpaceOnUse">
<stop offset="0.0116666" stop-color="#593232"/>
<stop offset="0.316667" stop-color="#593232"/>
<stop offset="0.626667" stop-color="#B27575"/>
<stop offset="0.991667" stop-color="#593232"/>
</linearGradient>
</defs>
</svg>
