<svg width="67" height="72" viewBox="0 0 67 72" fill="none" xmlns="http://www.w3.org/2000/svg">
<g filter="url(#filter0_d_252_2)">
<mask id="mask0_252_2" style="mask-type:alpha" maskUnits="userSpaceOnUse" x="0" y="0" width="67" height="67">
<rect x="0.5" y="-0.5" width="66" height="66" transform="matrix(1 0 0 -1 0 66)" fill="#D9D9D9" stroke="url(#paint0_linear_252_2)"/>
</mask>
<g mask="url(#mask0_252_2)">
<path d="M21.4498 12.6399L21.4433 12.6604L21.4221 12.657C17.3328 12.0064 13.9553 12.7154 11.2866 14.7807C8.61673 16.847 7.00295 19.6677 6.44552 23.2445L6.44575 23.2445L6.44478 23.2477C5.93428 24.9649 5.88774 26.7635 6.30564 28.6441C6.72263 30.5205 7.95062 32.1324 9.99395 33.4791L10.0253 33.4998L9.99417 33.5207C7.85758 34.9606 6.59484 36.6422 6.20104 38.5649C5.80638 40.4918 5.91099 42.29 6.51413 43.9603L6.51449 43.9601L6.51524 43.9645C7.11907 47.4481 8.77917 50.2107 11.4957 52.254C14.2111 54.2963 17.5421 54.9702 21.4915 54.2733L21.513 54.2695L21.5196 54.2903C22.5419 57.4966 24.1909 59.8877 26.4653 61.4659C28.7417 63.0455 31.0632 63.8344 33.4302 63.8344C35.7972 63.8344 38.1187 63.0455 40.3951 61.4659C42.6695 59.8877 44.3185 57.4966 45.3408 54.2903L45.3473 54.2697L45.3686 54.2732C49.3181 54.9237 52.661 54.2382 55.3997 52.2189C58.1394 50.199 59.7878 47.4482 60.3451 43.9648L60.3446 43.9647L60.3463 43.96C60.9493 42.3367 61.0424 40.5386 60.6245 38.5651C60.2074 36.5955 58.9561 34.9139 56.8663 33.5208L56.8353 33.5001L56.8662 33.4793C58.8627 32.1328 60.0678 30.4861 60.4849 28.5396C60.9029 26.589 60.8329 24.8258 60.2764 23.2489L60.2761 23.2491L60.2754 23.2449C59.6716 19.8078 58.023 17.0216 55.3293 14.8852C52.6371 12.7501 49.2946 12.0065 45.2988 12.657L45.2775 12.6604L45.271 12.6399C44.2487 9.43366 42.5883 7.06598 40.2908 5.53434C37.991 4.00113 35.681 3.23542 33.3604 3.23542C30.9932 3.23542 28.6716 4.00119 26.3952 5.53428C24.121 7.06589 22.4721 9.43359 21.4498 12.6399ZM33.4302 21.8198C36.6472 21.8198 39.3871 22.9507 41.6484 25.212C43.9098 27.4734 45.0406 30.2366 45.0406 33.5C45.0406 36.7634 43.9098 39.5266 41.6484 41.788C39.3871 44.0493 36.6472 45.1802 33.4302 45.1802C30.2132 45.1802 27.5196 44.0493 25.3512 41.7876C23.183 39.5262 22.0989 36.7631 22.0989 33.5C22.0989 30.2369 23.183 27.4738 25.3512 25.2124C27.5196 22.9507 30.2132 21.8198 33.4302 21.8198Z" fill="#DD67B8" stroke="url(#paint1_linear_252_2)" stroke-width="0.05"/>
</g>
</g>
<circle cx="13" cy="13" r="13" transform="matrix(1 0 0 -1 21 47)" fill="#FFE08E"/>
<defs>
<filter id="filter0_d_252_2" x="1.94202" y="3.21042" width="62.9639" height="68.649" filterUnits="userSpaceOnUse" color-interpolation-filters="sRGB">
<feFlood flood-opacity="0" result="BackgroundImageFix"/>
<feColorMatrix in="SourceAlpha" type="matrix" values="0 0 0 0 0 0 0 0 0 0 0 0 0 0 0 0 0 0 127 0" result="hardAlpha"/>
<feOffset dy="4"/>
<feGaussianBlur stdDeviation="2"/>
<feComposite in2="hardAlpha" operator="out"/>
<feColorMatrix type="matrix" values="0 0 0 0 0.648568 0 0 0 0 0.154035 0 0 0 0 0.603812 0 0 0 1 0"/>
<feBlend mode="normal" in2="BackgroundImageFix" result="effect1_dropShadow_252_2"/>
<feBlend mode="normal" in="SourceGraphic" in2="effect1_dropShadow_252_2" result="shape"/>
</filter>
<linearGradient id="paint0_linear_252_2" x1="67" y1="33.5" x2="0" y2="33.5" gradientUnits="userSpaceOnUse">
<stop offset="0.0116666" stop-color="#593232"/>
<stop offset="0.316667" stop-color="#593232"/>
<stop offset="0.626667" stop-color="#B27575"/>
<stop offset="0.991667" stop-color="#593232"/>
</linearGradient>
<linearGradient id="paint1_linear_252_2" x1="60.9059" y1="33.5349" x2="5.94202" y2="33.5349" gradientUnits="userSpaceOnUse">
<stop offset="0.0116666" stop-color="#593232"/>
<stop offset="0.316667" stop-color="#593232"/>
<stop offset="0.626667" stop-color="#B27575"/>
<stop offset="0.991667" stop-color="#593232"/>
</linearGradient>
</defs>
</svg>
