<svg width="39" height="64" viewBox="0 0 39 64" fill="none" xmlns="http://www.w3.org/2000/svg">
<path d="M26.8185 9.59901L20.7554 1.38439C20.2545 0.776566 19.6758 0.5 18.9958 0.5C18.3159 0.5 17.7372 0.776566 17.2363 1.38439L11.1731 9.59901L10.8538 10.0317L10.4454 9.68171L5.64752 5.56921L5.64054 5.56322L5.63378 5.55698C5.26583 5.21735 4.90208 5.03457 4.54161 4.97242C4.18164 4.91035 3.78334 4.96138 3.33374 5.15808C2.88577 5.35407 2.5784 5.61339 2.37947 5.92421C2.17988 6.23607 2.06667 6.63546 2.06667 7.14792V14.9812C2.06667 19.4921 3.57087 23.3516 6.58359 26.5863C9.59896 29.8239 13.2839 31.5945 17.6611 31.9117L18.125 31.9453V32.4104V56.7917L17.1692 56.9972C15.7046 53.7497 13.4256 50.9243 10.3181 48.5216C7.3752 46.2461 4.10392 44.6757 0.5 43.8084V45.3354C0.5 50.2964 2.22753 54.5105 5.69162 58.0064C9.15459 61.5011 13.351 63.2437 18.3104 63.2437H19.7792C24.7386 63.2437 28.9523 61.501 32.4485 58.0048C35.9447 54.5086 37.6875 50.2949 37.6875 45.3354V43.806C34.0178 44.6731 30.6971 46.2451 27.7205 48.5231C24.5828 50.9245 22.2885 53.7806 20.8239 57.0918L19.8667 56.8896V32.4104V31.9453L20.3305 31.9117C24.7078 31.5945 28.3927 29.8239 31.4081 26.5863C34.4208 23.3516 35.925 19.4921 35.925 14.9812V7.14792C35.925 6.63546 35.8118 6.23607 35.6122 5.92421C35.4133 5.61339 35.1059 5.35407 34.6579 5.15808C34.2083 4.96138 33.81 4.91035 33.4501 4.97242C33.0896 5.03457 32.7258 5.21735 32.3579 5.55698L32.3511 5.56322L32.3441 5.56921L27.5462 9.68171L27.1379 10.0317L26.8185 9.59901Z" fill="#FFE08E" stroke="#FFE08E"/>
</svg>
